<svg id="SvgjsSvg1001" width="288" height="288" xmlns="http://www.w3.org/2000/svg" version="1.1" xmlns:xlink="http://www.w3.org/1999/xlink" xmlns:svgjs="http://svgjs.com/svgjs"><defs id="SvgjsDefs1002"></defs><g id="SvgjsG1008"><svg xmlns="http://www.w3.org/2000/svg" width="288" height="288" version="1.0" viewBox="0 0 2000 2000"><g transform="matrix(.1 0 0 -.1 0 2000)" fill="#ffffff" class="color000 svgShape"><path d="M9981 18589c-5-13-1482-3435-3281-7604-1800-4169-3274-7586-3277-7593-4-9 170-12 848-12l854 0 2862 6631 2862 6631-421 977c-232 537-425 980-429 985-5 5-12-1-18-15zM8740 10774c-1273-2951-2316-5370-2318-5375-2-5 325-9 850-9l853 0 1894 4390c1579 3662 1892 4394 1884 4413-5 12-196 455-424 984-228 530-416 963-419 963-3 0-1047-2415-2320-5366zM5898 4188l-346-803 2754-3c1515-1 3993-1 5508 0l2754 3-346 803-347 802-4815 0-4815 0-347-802zM2899 2178l-347-803 3718-3c2045-1 5394-1 7443 0l3725 3-347 802-346 803-6750 0-6750 0-346-802z" fill="#ffffff" class="color000 svgShape"></path></g></svg></g></svg>