<?xml version="1.0" standalone="no"?>
<!DOCTYPE svg PUBLIC "-//W3C//DTD SVG 20010904//EN"
 "http://www.w3.org/TR/2001/REC-SVG-20010904/DTD/svg10.dtd">
<svg version="1.0" xmlns="http://www.w3.org/2000/svg"
 width="2000.000000pt" height="2000.000000pt" viewBox="0 0 2000.000000 2000.000000"
 preserveAspectRatio="xMidYMid meet">

<g transform="translate(0.000000,2000.000000) scale(0.100000,-0.100000)"
fill="#000000" stroke="none">
<path d="M9981 18589 c-5 -13 -1482 -3435 -3281 -7604 -1800 -4169 -3274
-7586 -3277 -7593 -4 -9 170 -12 848 -12 l854 0 2862 6631 2862 6631 -421 977
c-232 537 -425 980 -429 985 -5 5 -12 -1 -18 -15z"/>
<path d="M8740 10774 c-1273 -2951 -2316 -5370 -2318 -5375 -2 -5 325 -9 850
-9 l853 0 1894 4390 c1579 3662 1892 4394 1884 4413 -5 12 -196 455 -424 984
-228 530 -416 963 -419 963 -3 0 -1047 -2415 -2320 -5366z"/>
<path d="M5898 4188 l-346 -803 2754 -3 c1515 -1 3993 -1 5508 0 l2754 3 -346
803 -347 802 -4815 0 -4815 0 -347 -802z"/>
<path d="M2899 2178 l-347 -803 3718 -3 c2045 -1 5394 -1 7443 0 l3725 3 -347
802 -346 803 -6750 0 -6750 0 -346 -802z"/>
</g>
</svg>
