<?xml version="1.0" standalone="no"?>
<!DOCTYPE svg PUBLIC "-//W3C//DTD SVG 20010904//EN"
 "http://www.w3.org/TR/2001/REC-SVG-20010904/DTD/svg10.dtd">
<svg version="1.0" xmlns="http://www.w3.org/2000/svg"
 width="4337.000000pt" height="2000.000000pt" viewBox="0 0 4337.000000 2000.000000"
 preserveAspectRatio="xMidYMid meet">

<g transform="translate(0.000000,2000.000000) scale(0.100000,-0.100000)"
fill="#000000" stroke="none">
<path d="M6610 10779 c-1405 -3256 -2556 -5925 -2558 -5930 -2 -5 266 -9 661
-9 l665 0 39 93 c22 50 1025 2373 2228 5161 1285 2979 2185 5076 2182 5087 -8
31 -652 1519 -657 1519 -3 0 -1155 -2665 -2560 -5921z"/>
<path d="M9991 14759 c-5 -13 -816 -1891 -1801 -4174 -986 -2282 -1794 -4156
-1797 -4162 -4 -10 132 -13 659 -13 l665 0 12 28 c7 15 672 1553 1477 3419
l1464 3392 -326 758 c-180 417 -331 762 -335 767 -5 5 -12 -1 -18 -15z"/>
<path d="M25840 13909 c-349 -144 -639 -264 -643 -269 -5 -4 10 -44 32 -88
l40 -80 93 31 c72 23 117 31 196 35 95 4 106 3 157 -23 64 -31 104 -82 134
-171 31 -95 41 -199 51 -539 13 -446 13 -4378 0 -4579 -17 -267 -53 -384 -148
-480 -82 -83 -164 -110 -369 -122 l-113 -7 0 -84 0 -83 1060 0 1060 0 0 83 0
84 -118 6 c-295 16 -429 82 -511 249 -69 140 -64 -77 -68 3276 l-3 3022 -108
0 -107 0 -635 -261z"/>
<path d="M28865 14157 c-110 -28 -219 -105 -286 -204 -68 -98 -93 -240 -65
-365 59 -264 330 -431 591 -363 163 43 298 180 341 346 21 84 15 212 -16 291
-46 122 -156 232 -279 279 -69 26 -213 34 -286 16z"/>
<path d="M35830 13905 c-428 -178 -634 -268 -632 -277 2 -7 19 -45 37 -85 l34
-73 63 23 c176 66 294 72 391 20 59 -32 98 -83 127 -165 30 -85 40 -177 50
-448 13 -335 12 -4571 0 -4723 -30 -358 -113 -472 -383 -528 -51 -10 -145 -22
-209 -25 l-118 -7 0 -84 0 -83 1100 0 1100 0 0 84 0 83 -127 7 c-252 15 -352
44 -430 129 -90 97 -119 200 -133 476 -12 228 -13 1624 -1 1617 5 -3 87 -106
183 -228 96 -123 401 -513 679 -868 278 -355 523 -672 546 -705 100 -148 122
-235 81 -315 -32 -62 -83 -88 -198 -103 l-90 -11 0 -83 0 -83 1055 0 1055 0 0
83 0 84 -122 6 c-234 12 -333 45 -493 164 -160 119 -288 255 -622 660 -211
256 -1303 1639 -1302 1650 1 8 1042 970 1176 1087 98 85 235 185 335 245 192
115 405 174 706 197 l92 7 0 73 0 74 -940 0 -940 0 0 -73 0 -73 78 -12 c135
-21 214 -75 248 -169 35 -100 5 -160 -169 -335 -124 -123 -1351 -1248 -1362
-1248 -3 0 -5 968 -5 2150 l0 2150 -112 -1 -113 -1 -635 -263z"/>
<path d="M12580 11899 c-358 -41 -733 -194 -1008 -412 -403 -318 -723 -898
-834 -1514 -20 -114 -23 -158 -23 -408 0 -312 13 -414 80 -658 119 -435 400
-887 717 -1153 269 -225 537 -347 903 -411 144 -24 509 -24 660 0 599 98 1078
414 1389 917 203 327 349 742 401 1134 18 136 20 441 4 584 -40 367 -164 707
-374 1022 -356 535 -853 839 -1469 899 -126 13 -337 12 -446 0z m240 -313
c271 -41 494 -184 686 -438 269 -358 424 -807 480 -1393 21 -219 15 -768 -10
-945 -62 -430 -163 -675 -361 -874 -128 -127 -266 -207 -433 -248 -125 -32
-340 -31 -467 0 -109 27 -266 103 -356 171 -334 254 -612 809 -718 1436 -68
401 -69 948 -1 1286 64 321 214 624 385 776 117 105 311 198 472 227 103 19
206 19 323 2z"/>
<path d="M15935 11649 c-352 -144 -644 -264 -648 -268 -4 -4 7 -45 25 -89 25
-61 37 -80 48 -76 71 26 199 56 265 61 193 14 292 -65 338 -272 31 -137 37
-388 37 -1592 0 -1016 -2 -1209 -15 -1309 -47 -353 -164 -464 -507 -481 l-128
-6 0 -84 0 -83 1070 0 1070 0 0 85 0 85 -64 0 c-89 0 -261 18 -324 35 -141 36
-255 161 -294 321 -8 36 -13 410 -15 1403 l-4 1355 119 116 c317 311 625 469
947 487 327 18 538 -124 634 -425 79 -249 91 -454 90 -1597 -1 -1021 -8 -1297
-38 -1379 -59 -164 -155 -253 -313 -291 -35 -9 -127 -18 -205 -22 l-143 -6 0
-84 0 -83 1070 0 1070 0 0 83 0 84 -117 7 c-273 15 -391 73 -468 230 -70 140
-67 92 -75 1486 -6 1077 -10 1276 -24 1400 -21 184 -55 335 -101 452 -166 421
-425 644 -815 703 -373 57 -731 -63 -1120 -376 -111 -89 -319 -290 -438 -424
l-72 -80 0 448 0 447 -107 0 -108 -1 -640 -260z"/>
<path d="M22190 11899 c-204 -22 -420 -81 -580 -157 -431 -206 -770 -608 -870
-1034 -66 -284 -50 -605 45 -868 119 -327 362 -604 678 -770 26 -14 47 -28 47
-31 0 -3 -44 -44 -97 -90 -131 -113 -339 -315 -410 -400 -76 -90 -155 -221
-192 -318 -108 -280 -33 -456 284 -667 l115 -76 -83 -88 c-45 -48 -152 -161
-237 -251 -169 -179 -251 -280 -365 -449 -139 -205 -180 -314 -173 -457 4 -70
10 -93 42 -158 132 -267 634 -550 1166 -658 245 -50 364 -61 675 -61 305 -1
407 7 640 50 450 82 860 268 1180 536 125 104 298 286 373 393 210 296 285
635 211 945 -72 304 -322 561 -658 675 -248 84 -443 101 -1696 145 -368 13
-504 25 -622 55 -140 36 -214 86 -250 172 -52 126 60 356 266 544 l72 66 92
-23 c557 -142 1159 -74 1570 175 177 108 357 278 469 445 165 247 231 474 230
786 -1 314 -72 573 -213 782 -22 31 -39 59 -39 62 0 3 174 6 388 8 436 3 439
4 462 74 19 57 17 231 -4 279 -30 73 4 69 -641 75 l-580 5 -43 28 c-172 111
-429 203 -680 243 -117 18 -455 26 -572 13z m370 -259 c367 -104 628 -505 706
-1085 24 -181 24 -519 1 -673 -65 -419 -265 -676 -598 -768 -89 -25 -308 -25
-399 -1 -383 103 -643 483 -726 1062 -22 150 -25 549 -5 670 41 254 116 436
235 565 169 185 354 265 596 255 75 -2 141 -11 190 -25z m-974 -4204 c267 -36
746 -69 1229 -86 684 -24 898 -40 1095 -85 186 -41 274 -88 347 -183 59 -77
79 -206 52 -334 -47 -223 -275 -475 -559 -618 -260 -131 -636 -200 -1086 -200
-682 0 -1240 148 -1501 398 -97 93 -135 178 -134 299 0 210 120 448 376 746
37 42 68 77 69 77 1 0 51 -6 112 -14z"/>
<path d="M28535 11654 c-341 -139 -632 -258 -647 -263 l-27 -10 26 -63 c14
-35 29 -73 34 -85 l8 -21 63 19 c293 92 461 52 528 -126 63 -171 72 -412 67
-1845 -4 -1285 -2 -1254 -72 -1395 -38 -78 -108 -156 -168 -186 -57 -29 -154
-48 -294 -55 l-123 -7 0 -84 0 -83 1050 0 1050 0 0 84 0 83 -112 7 c-133 8
-234 27 -295 57 -103 50 -187 171 -220 319 -15 69 -17 237 -20 1993 l-3 1917
-113 -1 -112 -1 -620 -254z"/>
<path d="M30985 11649 c-352 -144 -644 -264 -648 -268 -4 -4 7 -45 25 -89 25
-61 37 -80 48 -76 71 26 199 56 265 61 193 14 292 -65 338 -272 31 -137 37
-388 37 -1592 0 -1016 -2 -1209 -15 -1309 -47 -353 -164 -464 -507 -481 l-128
-6 0 -84 0 -83 1070 0 1070 0 0 85 0 85 -64 0 c-89 0 -261 18 -324 35 -141 36
-255 161 -294 321 -8 36 -13 410 -15 1403 l-4 1355 119 116 c317 311 625 469
947 487 327 18 538 -124 634 -425 79 -249 91 -454 90 -1597 -1 -1021 -8 -1297
-38 -1379 -59 -164 -155 -253 -313 -291 -35 -9 -127 -18 -205 -22 l-143 -6 0
-84 0 -83 1070 0 1070 0 0 83 0 84 -117 7 c-273 15 -391 73 -468 230 -70 140
-67 92 -75 1486 -6 1077 -10 1276 -24 1400 -21 184 -55 335 -101 452 -166 421
-425 644 -815 703 -373 57 -731 -63 -1120 -376 -111 -89 -319 -290 -438 -424
l-72 -80 0 448 0 447 -107 0 -108 -1 -640 -260z"/>
<path d="M6240 6068 c-6 -13 -127 -293 -269 -623 l-259 -600 2143 -3 c1179 -1
3111 -1 4293 0 l2150 3 -268 620 -267 620 -3757 3 -3756 2 -10 -22z"/>
<path d="M3900 4498 c-6 -13 -127 -293 -269 -623 l-259 -600 2899 -3 c1595 -1
4203 -1 5798 0 l2899 3 -268 620 -267 620 -5262 3 -5261 2 -10 -22z"/>
</g>
</svg>
